<svg width="100" height="100" viewBox="0 0 100 100" fill="none" xmlns="http://www.w3.org/2000/svg">
<path d="M87.5 3.125H12.5C7.32233 3.125 3.125 7.32233 3.125 12.5V87.5C3.125 92.6777 7.32233 96.875 12.5 96.875H87.5C92.6777 96.875 96.875 92.6777 96.875 87.5V12.5C96.875 7.32233 92.6777 3.125 87.5 3.125Z" fill="#DCE4EF"/>
<path d="M96.875 21.875V12.5C96.875 10.0136 95.8873 7.62903 94.1291 5.87087C92.371 4.11272 89.9864 3.125 87.5 3.125H12.5C10.0136 3.125 7.62903 4.11272 5.87087 5.87087C4.11272 7.62903 3.125 10.0136 3.125 12.5V21.875H96.875Z" fill="#FF6B81"/>
<path d="M81.25 15.625H79.6875C78.8587 15.625 78.0638 15.2958 77.4778 14.7097C76.8917 14.1237 76.5625 13.3288 76.5625 12.5C76.5625 11.6712 76.8917 10.8763 77.4778 10.2903C78.0638 9.70424 78.8587 9.375 79.6875 9.375H81.25C82.0788 9.375 82.8737 9.70424 83.4597 10.2903C84.0458 10.8763 84.375 11.6712 84.375 12.5C84.375 13.3288 84.0458 14.1237 83.4597 14.7097C82.8737 15.2958 82.0788 15.625 81.25 15.625Z" fill="#DCE4EF"/>
<path d="M68.75 15.625H67.1875C66.3587 15.625 65.5638 15.2958 64.9778 14.7097C64.3917 14.1237 64.0625 13.3288 64.0625 12.5C64.0625 11.6712 64.3917 10.8763 64.9778 10.2903C65.5638 9.70424 66.3587 9.375 67.1875 9.375H68.75C69.5788 9.375 70.3737 9.70424 70.9597 10.2903C71.5458 10.8763 71.875 11.6712 71.875 12.5C71.875 13.3288 71.5458 14.1237 70.9597 14.7097C70.3737 15.2958 69.5788 15.625 68.75 15.625Z" fill="#DCE4EF"/>
<path d="M31.2501 75.0001C30.8388 75.0025 30.4311 74.9236 30.0503 74.7681C29.6696 74.6126 29.3233 74.3835 29.0313 74.0938L16.5313 61.5938C16.2384 61.3033 16.0059 60.9577 15.8473 60.5769C15.6886 60.1961 15.6069 59.7876 15.6069 59.3751C15.6069 58.9626 15.6886 58.5541 15.8473 58.1733C16.0059 57.7925 16.2384 57.4469 16.5313 57.1563L29.0313 44.6563C29.6198 44.0679 30.4179 43.7373 31.2501 43.7373C32.0822 43.7373 32.8804 44.0679 33.4688 44.6563C34.0573 45.2448 34.3878 46.0429 34.3878 46.8751C34.3878 47.7073 34.0573 48.5054 33.4688 49.0938L23.1563 59.3751L33.4688 69.6563C33.7617 69.9468 33.9942 70.2925 34.1528 70.6733C34.3115 71.0541 34.3932 71.4626 34.3932 71.8751C34.3932 72.2876 34.3115 72.6961 34.1528 73.0769C33.9942 73.4577 33.7617 73.8033 33.4688 74.0938C33.1768 74.3835 32.8305 74.6126 32.4498 74.7681C32.069 74.9236 31.6613 75.0025 31.2501 75.0001Z" fill="#FF6B81"/>
<path d="M68.7501 75.0001C68.3388 75.0025 67.9311 74.9236 67.5503 74.7681C67.1696 74.6126 66.8233 74.3835 66.5313 74.0938C66.2384 73.8033 66.0059 73.4577 65.8473 73.0769C65.6886 72.6961 65.6069 72.2876 65.6069 71.8751C65.6069 71.4626 65.6886 71.0541 65.8473 70.6733C66.0059 70.2925 66.2384 69.9468 66.5313 69.6563L76.8438 59.3751L66.5313 49.0938C66.2399 48.8025 66.0088 48.4566 65.8511 48.0759C65.6934 47.6952 65.6123 47.2871 65.6123 46.8751C65.6123 46.0429 65.9429 45.2448 66.5313 44.6563C67.1198 44.0679 67.9179 43.7373 68.7501 43.7373C69.1621 43.7373 69.5701 43.8185 69.9508 43.9762C70.3315 44.1338 70.6774 44.365 70.9688 44.6563L83.4688 57.1563C83.7617 57.4469 83.9942 57.7925 84.1528 58.1733C84.3115 58.5541 84.3932 58.9626 84.3932 59.3751C84.3932 59.7876 84.3115 60.1961 84.1528 60.5769C83.9942 60.9577 83.7617 61.3033 83.4688 61.5938L70.9688 74.0938C70.6768 74.3835 70.3305 74.6126 69.9498 74.7681C69.569 74.9236 69.1613 75.0025 68.7501 75.0001Z" fill="#FF6B81"/>
<path d="M43.7501 81.2501C43.4114 81.2416 43.0752 81.1891 42.7501 81.0938C42.3596 80.9634 41.9988 80.757 41.6883 80.4867C41.3778 80.2164 41.1238 79.8874 40.9409 79.5186C40.7579 79.1498 40.6497 78.7485 40.6223 78.3378C40.5949 77.927 40.6489 77.5149 40.7813 77.1251L53.2813 39.6251C53.4126 39.2352 53.6195 38.875 53.89 38.5651C54.1605 38.2552 54.4894 38.0016 54.8579 37.8187C55.2265 37.6359 55.6274 37.5275 56.0378 37.4996C56.4483 37.4718 56.8602 37.525 57.2501 37.6563C57.6399 37.7877 58.0001 37.9945 58.31 38.265C58.62 38.5355 58.8736 38.8644 59.0564 39.233C59.2392 39.6015 59.3476 40.0024 59.3755 40.4129C59.4034 40.8233 59.3501 41.2352 59.2188 41.6251L46.7188 79.1251C46.5092 79.7458 46.1098 80.2849 45.577 80.6662C45.0443 81.0475 44.4052 81.2518 43.7501 81.2501Z" fill="#FF6B81"/>
</svg>
