<svg width="100" height="100" viewBox="0 0 100 100" fill="none" xmlns="http://www.w3.org/2000/svg">
<g clip-path="url(#clip0_5_438)">
<path d="M18.3334 15H11.6666C10.6666 15 10 14.3333 10 13.3333C10 12.3333 10.6666 11.6667 11.6666 11.6667H18.3332C19.3332 11.6667 19.9998 12.3333 19.9998 13.3333C19.9998 14.3333 19.3334 15 18.3334 15Z" fill="#FF6B81"/>
<path d="M18.3334 21.6665H11.6666C10.6666 21.6665 10 20.9999 10 19.9999C10 18.9999 10.6666 18.3333 11.6666 18.3333H18.3332C19.3332 18.3333 19.9998 18.9999 19.9998 19.9999C20 20.9999 19.3334 21.6665 18.3334 21.6665Z" fill="#FF6B81"/>
<path d="M18.3334 28.3334H11.6666C10.6666 28.3334 10 27.6668 10 26.6668C10 25.6668 10.6666 25 11.6666 25H18.3332C19.3332 25 19.9998 25.6666 19.9998 26.6666C19.9998 27.6666 19.3334 28.3334 18.3334 28.3334Z" fill="#FF6B81"/>
<path d="M18.3334 34.9999H11.6666C10.6666 34.9999 10 34.3334 10 33.3334C10 32.3334 10.6666 31.6667 11.6666 31.6667H18.3332C19.3332 31.6667 19.9998 32.3334 19.9998 33.3334C20 34.3334 19.3334 34.9999 18.3334 34.9999Z" fill="#FF6B81"/>
<path d="M18.3334 41.6665H11.6666C10.6666 41.6665 10 40.9999 10 39.9999C10 38.9999 10.6666 38.3333 11.6666 38.3333H18.3332C19.3332 38.3333 19.9998 38.9999 19.9998 39.9999C20 40.9999 19.3334 41.6665 18.3334 41.6665Z" fill="#FF6B81"/>
<path d="M18.3334 48.3334H11.6666C10.6666 48.3334 10 47.6668 10 46.6668C10 45.6668 10.6666 45.0002 11.6666 45.0002H18.3332C19.3332 45.0002 19.9998 45.6668 19.9998 46.6668C20 47.6667 19.3334 48.3334 18.3334 48.3334Z" fill="#FF6B81"/>
<path d="M18.3334 55H11.6666C10.6666 55 10 54.3333 10 53.3333C10 52.3333 10.6666 51.6667 11.6666 51.6667H18.3332C19.3332 51.6667 19.9998 52.3333 19.9998 53.3333C19.9998 54.3333 19.3334 55 18.3334 55Z" fill="#FF6B81"/>
<path d="M18.3334 61.6665H11.6666C10.6666 61.6665 10 60.9999 10 59.9999C10 58.9999 10.6666 58.3333 11.6666 58.3333H18.3332C19.3332 58.3333 19.9998 58.9999 19.9998 59.9999C19.9998 60.9999 19.3334 61.6665 18.3334 61.6665Z" fill="#FF6B81"/>
<path d="M18.3334 68.3334H11.6666C10.6666 68.3334 10 67.6668 10 66.6668C10 65.6668 10.6666 65.0002 11.6666 65.0002H18.3332C19.3332 65.0002 19.9998 65.6668 19.9998 66.6668C20 67.6667 19.3334 68.3334 18.3334 68.3334Z" fill="#FF6B81"/>
<path d="M18.3334 75H11.6666C10.6666 75 10 74.3334 10 73.3334C10 72.3334 10.6666 71.6667 11.6666 71.6667H18.3332C19.3332 71.6667 19.9998 72.3334 19.9998 73.3334C20 74.3334 19.3334 75 18.3334 75Z" fill="#FF6B81"/>
<path d="M18.3334 81.6665H11.6666C10.6666 81.6665 10 80.9999 10 79.9999C10 78.9999 10.6666 78.3333 11.6666 78.3333H18.3332C19.3332 78.3333 19.9998 78.9999 19.9998 79.9999C20 80.9999 19.3334 81.6665 18.3334 81.6665Z" fill="#FF6B81"/>
<path d="M88.3334 21.6665H78.3334V31.6665H88.3334V21.6665Z" fill="#FF6B81"/>
<path d="M88.3334 31.6665H78.3334V41.6665H88.3334V31.6665Z" fill="#FF6B81"/>
<path d="M88.3334 41.6665H78.3334V51.6665H88.3334V41.6665Z" fill="#FF6B81"/>
<path d="M88.3334 51.6665H78.3334V61.6665H88.3334V51.6665Z" fill="#FF6B81"/>
<path d="M83.5 71.6665H78.3334V61.6665H88.3334V66.8331C88.3334 69.4999 86.1666 71.6665 83.5 71.6665Z" fill="#FF6B81"/>
<path d="M78.3334 21.6665H88.3334V11.6665C82.8334 11.6665 78.3334 16.1665 78.3334 21.6665Z" fill="#FF6B81"/>
<path d="M21.6666 85C17.8332 85 14.6666 88.3334 15 92.3334C15.3334 95.8334 18.5 98.3334 22 98.3334H67.5C73.5 98.3334 78.5 93.5 78.5 87.3334V85H21.6666Z" fill="#FF6B81"/>
<path d="M78.3334 84.9999H21.6666C18 84.9999 15 87.9999 15 91.6665V8.33335C15 4.66675 18 1.66675 21.6666 1.66675H88.3332V11.6667C82.8332 11.6667 78.3332 16.1667 78.3332 21.6667L78.3334 84.9999Z" fill="#DCE4EF"/>
<path d="M88.3334 21.6665H85V31.6665H88.3334V21.6665Z" fill="#93ACA7"/>
<path d="M88.3334 31.6665H85V41.6665H88.3334V31.6665Z" fill="#93ACA7"/>
<path d="M88.3334 41.6665H85V51.6665H88.3334V41.6665Z" fill="#93ACA7"/>
<path d="M88.3334 51.6665H85V61.6665H88.3334V51.6665Z" fill="#93ACA7"/>
<path d="M85 61.6665V66.8331C85 69.4997 82.8334 71.6665 80.1666 71.6665H83.5C86.1666 71.6665 88.3334 69.4999 88.3334 66.8331V61.6665H85Z" fill="#93ACA7"/>
<path d="M85 12.1665V21.6665H88.3334V11.6665C87.1666 11.6665 86 11.8333 85 12.1665Z" fill="#93ACA7"/>
<path d="M64.6666 52.5001C63.5 50.1667 59 47.5001 59 47.5001C58 47.0001 56.8334 46.8335 56.1666 47.8335C56.1666 47.8335 54.6666 49.6669 54.3332 49.8335C52.6666 51.0001 50.9998 51.0001 49.4998 49.3335L45.8332 45.6669L42.1666 42.0003C40.5 40.3337 40.5 38.8337 41.6666 37.1669C42 36.8335 43.6666 35.3335 43.6666 35.3335C44.6666 34.8335 44.6666 33.5001 44 32.5001C44 32.5001 41.3334 28.0001 39 26.8335C38 26.3335 36.8334 26.5001 36 27.3335L34.3334 29.0001C29.1668 34.1667 31.6668 40.0001 36.8334 45.1667L41.5 49.8333L46.1666 54.4999C51.3332 59.6665 57.1666 62.1665 62.3332 56.9999L63.9998 55.3333C65 54.8335 65.1666 53.5001 64.6666 52.5001Z" fill="#FF6B81"/>
<path d="M67.3334 100H22C17.6666 100 13.8334 96.6667 13.5 92.5001C13.3334 90.1667 14 87.8335 15.6666 86.0001C17 84.3335 19.3332 83.3335 21.6666 83.3335H78.3333C79.3333 83.3335 79.9998 84.0001 79.9998 85.0001V87.3335C80 94.3335 74.3334 100 67.3334 100ZM21.6666 86.6667C20.3332 86.6667 18.8332 87.3333 18 88.3333C17 89.3333 16.6666 90.8333 16.6666 92.1667C17 94.6667 19.1666 96.6667 22 96.6667H67.5C72.6666 96.6667 76.8334 92.5001 76.8334 87.3333V86.6667H21.6666Z" fill="#FF6B81"/>
<path d="M69.9999 93.3334H23.3334C22.3334 93.3334 21.6667 92.6668 21.6667 91.6668C21.6667 90.6668 22.3334 90.0002 23.3334 90.0002H69.9999C70.9999 90.0002 71.6666 90.6668 71.6666 91.6668C71.6666 92.6667 70.9999 93.3334 69.9999 93.3334Z" fill="#93ACA7"/>
<path d="M18.3334 13.3334H11.6666C10.6666 13.3334 10 12.6668 10 11.6668C10 10.6668 10.6666 10.0002 11.6666 10.0002H18.3332C19.3332 10.0002 19.9998 10.6668 19.9998 11.6668C19.9998 12.6668 19.3334 13.3334 18.3334 13.3334Z" fill="#FF6B81"/>
<path d="M18.3334 20H11.6666C10.6666 20 10 19.3333 10 18.3333C10 17.3333 10.6666 16.6667 11.6666 16.6667H18.3332C19.3332 16.6667 19.9998 17.3333 19.9998 18.3333C19.9998 19.3333 19.3334 20 18.3334 20Z" fill="#FF6B81"/>
<path d="M18.3334 26.6667H11.6666C10.6666 26.6667 10 26.0001 10 25.0001C10 24.0001 10.6666 23.3335 11.6666 23.3335H18.3332C19.3332 23.3335 19.9998 24.0001 19.9998 25.0001C19.9998 26.0001 19.3334 26.6667 18.3334 26.6667Z" fill="#FF6B81"/>
<path d="M18.3334 33.3334H11.6666C10.6666 33.3334 10 32.6668 10 31.6668C10 30.6668 10.6666 30.0002 11.6666 30.0002H18.3332C19.3332 30.0002 19.9998 30.6668 19.9998 31.6668C20 32.6667 19.3334 33.3334 18.3334 33.3334Z" fill="#FF6B81"/>
<path d="M18.3334 40H11.6666C10.6666 40 10 39.3334 10 38.3334C10 37.3334 10.6666 36.6667 11.6666 36.6667H18.3332C19.3332 36.6667 19.9998 37.3334 19.9998 38.3334C20 39.3334 19.3334 40 18.3334 40Z" fill="#FF6B81"/>
<path d="M18.3334 46.6667H11.6666C10.6666 46.6667 10 46.0001 10 45.0001C10 44.0001 10.6666 43.3335 11.6666 43.3335H18.3332C19.3332 43.3335 19.9998 44.0001 19.9998 45.0001C20 46.0001 19.3334 46.6667 18.3334 46.6667Z" fill="#FF6B81"/>
<path d="M18.3334 53.3334H11.6666C10.6666 53.3334 10 52.6668 10 51.6668C10 50.6668 10.6666 50.0002 11.6666 50.0002H18.3332C19.3332 50.0002 19.9998 50.6668 19.9998 51.6668C20 52.6666 19.3334 53.3334 18.3334 53.3334Z" fill="#FF6B81"/>
<path d="M18.3334 60H11.6666C10.6666 60 10 59.3333 10 58.3333C10 57.3333 10.6666 56.6667 11.6666 56.6667H18.3332C19.3332 56.6667 19.9998 57.3333 19.9998 58.3333C19.9998 59.3333 19.3334 60 18.3334 60Z" fill="#FF6B81"/>
<path d="M18.3334 66.6667H11.6666C10.6666 66.6667 10 66.0001 10 65.0001C10 64.0001 10.6666 63.3335 11.6666 63.3335H18.3332C19.3332 63.3335 19.9998 64.0001 19.9998 65.0001C19.9998 66.0001 19.3334 66.6667 18.3334 66.6667Z" fill="#FF6B81"/>
<path d="M18.3334 73.3334H11.6666C10.6666 73.3334 10 72.6668 10 71.6668C10 70.6668 10.6666 70.0002 11.6666 70.0002H18.3332C19.3332 70.0002 19.9998 70.6668 19.9998 71.6668C19.9998 72.6668 19.3334 73.3334 18.3334 73.3334Z" fill="#FF6B81"/>
<path d="M18.3334 80H11.6666C10.6666 80 10 79.3333 10 78.3333C10 77.3333 10.6666 76.6667 11.6666 76.6667H18.3332C19.3332 76.6667 19.9998 77.3333 19.9998 78.3333C19.9998 79.3333 19.3334 80 18.3334 80Z" fill="#FF6B81"/>
<path d="M15 93.3334C14 93.3334 13.3334 92.6668 13.3334 91.6668V8.3334C13.3334 3.6666 17 0 21.6666 0H88.3332C89.3332 0 89.9998 0.666602 89.9998 1.6666V11.6666C89.9998 12.6666 89.3332 13.3332 88.3332 13.3332C83.6666 13.3332 79.9998 16.9998 79.9998 21.6666V85C79.9998 86 79.3332 86.6666 78.3332 86.6666H21.6666C18.8332 86.6666 16.6666 88.8332 16.6666 91.6666C16.6666 92.6666 16 93.3334 15 93.3334ZM21.6666 3.3334C18.8332 3.3334 16.6666 5.5 16.6666 8.3334V85C18 84 19.8332 83.3334 21.6666 83.3334H76.6666V21.6666C76.6666 15.8332 81 11 86.6666 10.1666V3.3334H21.6666Z" fill="#FF6B81"/>
<path d="M88.3334 33.3334H78.3333C77.3333 33.3334 76.6667 32.6668 76.6667 31.6668V21.6668C76.6667 20.6668 77.3333 20.0002 78.3333 20.0002H88.3334C89.3334 20.0002 89.9999 20.6668 89.9999 21.6668V31.6668C89.9999 32.6667 89.3334 33.3334 88.3334 33.3334ZM80 30H86.6666V23.3334H80V30Z" fill="#FF6B81"/>
<path d="M88.3334 43.3334H78.3333C77.3333 43.3334 76.6667 42.6668 76.6667 41.6668V31.6668C76.6667 30.6668 77.3333 30.0002 78.3333 30.0002H88.3334C89.3334 30.0002 89.9999 30.6668 89.9999 31.6668V41.6668C89.9999 42.6667 89.3334 43.3334 88.3334 43.3334ZM80 40H86.6666V33.3334H80V40Z" fill="#FF6B81"/>
<path d="M88.3334 53.3334H78.3333C77.3333 53.3334 76.6667 52.6668 76.6667 51.6668V41.6668C76.6667 40.6668 77.3333 40.0002 78.3333 40.0002H88.3334C89.3334 40.0002 89.9999 40.6668 89.9999 41.6668V51.6668C89.9999 52.6667 89.3334 53.3334 88.3334 53.3334ZM80 50H86.6666V43.3334H80V50Z" fill="#FF6B81"/>
<path d="M88.3334 63.3334H78.3333C77.3333 63.3334 76.6667 62.6668 76.6667 61.6668V51.6668C76.6667 50.6668 77.3333 50.0002 78.3333 50.0002H88.3334C89.3334 50.0002 89.9999 50.6668 89.9999 51.6668V61.6668C89.9999 62.6667 89.3334 63.3334 88.3334 63.3334ZM80 60H86.6666V53.3334H80V60Z" fill="#FF6B81"/>
<path d="M83.4999 73.3335H78.3333C77.3333 73.3335 76.6667 72.6668 76.6667 71.6668V61.6668C76.6667 60.6668 77.3333 60.0002 78.3333 60.0002H88.3334C89.3334 60.0002 89.9999 60.6668 89.9999 61.6668V66.8335C89.9999 70.5001 87.1666 73.3335 83.4999 73.3335ZM80 70H83.4999C85.1666 70 86.6666 68.5001 86.6666 66.8335V63.3334H80V70Z" fill="#FF6B81"/>
<path d="M88.3334 23.3334H78.3333C77.3333 23.3334 76.6667 22.6668 76.6667 21.6668C76.6667 15.1668 81.8334 10.0002 88.3334 10.0002C89.3334 10.0002 89.9999 10.6668 89.9999 11.6668V21.6668C89.9999 22.6666 89.3334 23.3334 88.3334 23.3334ZM80.1666 20H86.6666V13.5C83.3334 14.1667 80.8334 16.6667 80.1666 20Z" fill="#FF6B81"/>
<path d="M56.5 61.6665C53 61.6665 49.1666 59.6665 45.3334 55.8331L35.8334 46.3331C32.8334 43.3331 30.8334 40.3331 30.1668 37.4997C29.3334 33.9997 30.3334 30.6663 33.1668 27.8331L34.8334 26.1665C36.1668 24.8331 38.1668 24.6665 39.8334 25.4999C42.5 26.8333 45.1668 31.3333 45.5 31.8333C46.1666 32.8333 46.3334 33.9999 46 34.9999C45.8334 35.8333 45.3334 36.3333 44.6666 36.8333C44 37.3333 43.1666 38.1667 43 38.3333C42.3334 39.3333 42.3334 39.9999 43.3334 40.9999L50.6668 48.3333C51.5002 49.1667 52.0002 49.1667 52.1668 49.1667C52.5002 49.1667 53.0002 49.0001 53.5002 48.6667C53.6668 48.5001 54.3336 47.6667 54.8336 47.0001C55.8336 45.5001 58.0002 45.0001 59.8336 46.1667C60.3336 46.5001 64.8336 49.1667 66.167 51.8333C67.0004 53.4999 66.667 55.4999 65.5004 56.8333L63.8338 58.4999C61.6666 60.4999 59.1666 61.6665 56.5 61.6665ZM37.8334 28.3333C37.6668 28.3333 37.3334 28.4999 37.1668 28.6667L35.5002 30.3333C33.5002 32.3333 32.8336 34.4999 33.3336 36.8333C33.8336 38.9999 35.5002 41.4999 38.0002 44.1667L47.5002 53.6667C50.6668 56.8333 53.6668 58.5001 56.3336 58.5001C58.167 58.5001 59.667 57.6667 61.3336 56.1667L63.0002 54.5001C63.3336 54.1667 63.3336 53.8335 63.1668 53.5001C62.5002 52.1667 59.6668 50.1667 58.1668 49.1667C58.0002 49.0001 57.6668 49.0001 57.6668 49.0001L57.5002 49.1667C55.8336 51.1667 55.5002 51.3333 55.3336 51.5001C52.8336 53.1667 50.5002 52.8335 48.3336 50.8335L41.0002 43.3335C39.0002 41.3335 38.6668 38.8335 40.3336 36.3335C40.5002 36.1669 40.667 35.8335 42.667 34.1669L42.8336 34.0003C42.8336 34.0003 42.8336 33.8337 42.667 33.5003C41.667 32.0003 39.8336 29.1669 38.3336 28.5003C38.1666 28.3333 38 28.3333 37.8334 28.3333Z" fill="#FF6B81"/>
</g>
<defs>
<clipPath id="clip0_5_438">
<rect width="100" height="100" fill="white"/>
</clipPath>
</defs>
</svg>
