<svg width="100" height="100" viewBox="0 0 100 100" fill="none" xmlns="http://www.w3.org/2000/svg">
<path d="M21.3689 43.8237L16.9936 43.0723L15.037 38.388C14.4833 37.0632 13.3419 36.2244 12.0909 36.2244C10.8408 36.2244 9.69852 37.0632 9.14487 38.388L7.18783 43.0723L2.81298 43.8237C1.57559 44.0359 0.547143 45.06 0.160817 46.465C-0.225509 47.87 0.0968677 49.4121 0.991725 50.4434L4.15767 54.0892L3.40999 59.2377C3.19843 60.6939 3.70521 62.1656 4.71657 63.034C5.28905 63.5256 5.96622 63.7755 6.64777 63.7755C7.17031 63.7755 7.69549 63.6281 8.17599 63.33L12.0901 60.8988L16.0041 63.33C16.4851 63.6286 17.0098 63.7755 17.5323 63.7755C17.5354 63.7755 17.5389 63.7755 17.5415 63.7755C19.3558 63.775 20.8262 62.0378 20.8262 59.8944C20.8262 59.5689 20.7925 59.2522 20.7285 58.95L20.0224 54.0892L23.1884 50.4434C24.0841 49.4121 24.4061 47.87 24.0197 46.465C23.6347 45.06 22.6063 44.0359 21.3689 43.8237Z" fill="#FF6B81"/>
<path d="M21.3689 7.59935L16.9936 6.84795L15.037 2.16363C14.4833 0.838852 13.3419 0 12.0909 0C10.8408 0 9.69852 0.838852 9.14487 2.16363L7.18783 6.84795L2.81298 7.59935C1.57559 7.81152 0.547143 8.83563 0.160817 10.2406C-0.225509 11.6456 0.0968677 13.1877 0.991725 14.2191L4.15767 17.8648L3.40999 23.0133C3.19843 24.4695 3.70521 25.9413 4.71657 26.8096C5.28905 27.3012 5.96622 27.5512 6.64777 27.5512C7.17031 27.5512 7.69549 27.4037 8.17599 27.1056L12.0901 24.6745L16.0041 27.1056C16.4851 27.4042 17.0098 27.5512 17.5323 27.5512C17.5354 27.5512 17.5389 27.5512 17.5415 27.5512C19.3558 27.5512 20.8262 25.8135 20.8262 23.67C20.8262 23.3445 20.7925 23.0278 20.7285 22.7256L20.0224 17.8648L23.1884 14.2191C24.0841 13.1877 24.4061 11.6456 24.0197 10.2406C23.6347 8.83563 22.6063 7.81152 21.3689 7.59935Z" fill="#FF6B81"/>
<path d="M21.3689 80.0481L16.9936 79.2967L15.037 74.6124C14.4833 73.2876 13.3419 72.4487 12.0909 72.4487C10.8408 72.4487 9.69852 73.2876 9.14487 74.6124L7.18783 79.2967L2.81298 80.0481C1.57559 80.2602 0.547143 81.2844 0.160817 82.6893C-0.225509 84.0943 0.0968677 85.6364 0.991725 86.6678L4.15767 90.3135L3.40999 95.462C3.19843 96.9183 3.70521 98.39 4.71657 99.2583C5.28905 99.75 5.96622 99.9999 6.64777 99.9999C7.17031 99.9999 7.69549 99.8524 8.17599 99.5544L12.0901 97.1232L16.0041 99.5544C16.4851 99.8529 17.0098 99.9999 17.5323 99.9999C17.5354 99.9999 17.5389 99.9999 17.5415 99.9999C19.3558 99.9994 20.8262 98.2622 20.8262 96.1187C20.8262 95.7932 20.7925 95.4765 20.7285 95.1743L20.0224 90.3135L23.1884 86.6678C24.0841 85.6364 24.4061 84.0943 24.0197 82.6893C23.6347 81.2844 22.6063 80.2602 21.3689 80.0481Z" fill="#FF6B81"/>
<path d="M92.0857 42.207H39.3238C37.2248 42.207 35.2118 42.8366 33.7276 43.9573C32.2434 45.0779 31.4095 46.5979 31.4095 48.1827V52.1665C31.4095 53.7513 32.2434 55.2712 33.7276 56.3919C35.2118 57.5126 37.2248 58.1421 39.3238 58.1421H92.0857C94.1847 58.1421 96.1977 57.5126 97.682 56.3919C99.1662 55.2712 100 53.7513 100 52.1665V48.1827C100 46.5979 99.1662 45.0779 97.682 43.9573C96.1977 42.8366 94.1847 42.207 92.0857 42.207ZM94.7238 52.1665C94.7238 52.6948 94.4459 53.2014 93.9511 53.575C93.4564 53.9485 92.7854 54.1584 92.0857 54.1584H65.7048V46.1908H92.0857C92.7854 46.1908 93.4564 46.4007 93.9511 46.7742C94.4459 47.1478 94.7238 47.6544 94.7238 48.1827V52.1665Z" fill="#FF6B81"/>
<path d="M92.0857 5.78394H39.3238C37.2248 5.78394 35.2118 6.41351 33.7276 7.53417C32.2434 8.65482 31.4095 10.1748 31.4095 11.7596V15.7434C31.4095 17.3282 32.2434 18.8482 33.7276 19.9688C35.2118 21.0895 37.2248 21.719 39.3238 21.719H92.0857C94.1847 21.719 96.1977 21.0895 97.682 19.9688C99.1662 18.8482 100 17.3282 100 15.7434V11.7596C100 10.1748 99.1662 8.65482 97.682 7.53417C96.1977 6.41351 94.1847 5.78394 92.0857 5.78394ZM94.7238 15.7434C94.7238 16.2717 94.4459 16.7783 93.9511 17.1519C93.4564 17.5254 92.7854 17.7353 92.0857 17.7353H57.7905V9.76771H92.0857C92.7854 9.76771 93.4564 9.97757 93.9511 10.3511C94.4459 10.7247 94.7238 11.2313 94.7238 11.7596V15.7434Z" fill="#FF6B81"/>
<path d="M92.0857 78.6301H39.3238C37.2248 78.6301 35.2118 79.2597 33.7276 80.3804C32.2434 81.501 31.4095 83.0209 31.4095 84.6058V88.5896C31.4095 90.1744 32.2434 91.6943 33.7276 92.815C35.2118 93.9357 37.2248 94.5652 39.3238 94.5652H92.0857C94.1847 94.5652 96.1977 93.9357 97.682 92.815C99.1662 91.6943 100 90.1744 100 88.5896V84.6058C100 83.0209 99.1662 81.501 97.682 80.3804C96.1977 79.2597 94.1847 78.6301 92.0857 78.6301ZM94.7238 88.5896C94.7238 89.1179 94.4459 89.6245 93.9511 89.998C93.4564 90.3716 92.7854 90.5815 92.0857 90.5815H78.8952V82.6139H92.0857C92.7854 82.6139 93.4564 82.8238 93.9511 83.1973C94.4459 83.5709 94.7238 84.0775 94.7238 84.6058V88.5896Z" fill="#FF6B81"/>
</svg>
