<svg width="100" height="100" viewBox="0 0 100 100" fill="none" xmlns="http://www.w3.org/2000/svg">
<g clip-path="url(#clip0_9_611)">
<path d="M98.4964 38.2012C96.4226 36.9586 92.6937 29.7024 91.8638 28.8741C91.0339 28.0428 86.2657 26.1768 86.2657 26.1768L83.5714 17.678C78.3874 18.3 75.2806 26.5908 75.0728 27.2129C75.0728 27.2129 74.553 41.62 51.5435 36.0235C35.0519 32.0117 25.1333 28.1315 16.8028 35.9532C16.2817 35.059 15.9257 34.1496 15.6657 33.1686C15.2013 31.3987 15.0958 29.3678 15.0974 27.0537C15.0974 25.9198 15.1187 24.7248 15.1202 23.4717C15.1187 20.8475 15.0239 17.9545 14.33 14.875C13.6425 11.7942 12.3312 8.54359 10.028 5.30511C9.03467 3.90511 7.09365 3.57503 5.69229 4.56995C4.29248 5.56488 3.96221 7.5057 4.95713 8.90569C6.77432 11.4731 7.72315 13.8604 8.26416 16.2399C8.79912 18.6162 8.90303 21.0049 8.90166 23.4717C8.90166 24.6483 8.87861 25.842 8.87861 27.0537C8.88174 29.5237 8.96416 32.0926 9.6458 34.7334C10.1821 36.8301 11.154 38.9483 12.6747 40.926C6.23623 51.066 9.77275 61.8328 9.77275 61.8328L3.11397 72.4268C2.99326 72.6178 2.91221 72.8303 2.871 73.0502L0.0284178 88.6862C-0.0967775 89.3739 0.196777 90.069 0.774316 90.4604L8.77803 95.8828C8.94912 96.0004 9.16162 96.0342 9.36025 95.9791C9.56065 95.9256 9.72412 95.785 9.81104 95.5985L11.4372 92.117C11.5579 91.8557 11.5091 91.5471 11.3134 91.3362L9.21807 89.1002C8.79189 88.6463 8.6374 87.9998 8.81162 87.4008L12.296 75.4803C12.4091 75.0998 12.6444 74.7682 12.9669 74.5389L17.6511 71.2073C18.2868 70.7518 19.1472 70.7733 19.7616 71.2563C20.3761 71.7391 20.5991 72.569 20.3103 73.2949L18.244 78.4879C18.0058 79.0838 18.111 79.7623 18.5177 80.2574L30.2946 94.5865H39.1263C39.5161 94.5865 39.8325 94.2701 39.8325 93.8821V89.4867C39.8325 89.0969 39.5161 88.7807 39.1263 88.7807H36.3327C35.68 88.7807 35.081 88.4186 34.7737 87.8424L29.9917 79.825C29.6708 79.2184 29.7319 78.4832 30.1446 77.9377L34.4314 72.2739C34.7646 71.8354 35.2843 71.5756 35.836 71.5756H47.7886C48.3495 71.5756 48.8782 71.8444 49.2099 72.2985C49.5415 72.7524 49.6378 73.3362 49.4696 73.8725L45.6169 86.0131C45.4946 86.3953 45.5067 86.8094 45.6521 87.1838L48.1233 93.5506H55.7937V91.8924L54.5253 87.9051C54.4062 87.5323 54.4153 87.1303 54.5513 86.7621L59.7214 72.7295C59.9782 72.0356 60.6382 71.5756 61.3765 71.5756H66.6521C67.1304 71.5756 67.5888 71.7713 67.922 72.118L82.5339 92.3065C82.5339 92.3065 89.9964 92.3065 92.4845 92.3065C94.9724 92.3065 94.0097 87.3428 91.6562 87.1225C87.198 86.7084 81.4991 74.2713 79.0112 69.9174C76.5231 65.5649 83.8284 52.0856 89.3759 51.4696C94.9724 50.8475 97.8747 48.5658 98.7046 45.4559C100.362 43.5912 100.57 39.4451 98.4964 38.2012Z" fill="#FF6B81"/>
</g>
<defs>
<clipPath id="clip0_9_611">
<rect width="100" height="100" fill="white"/>
</clipPath>
</defs>
</svg>
