<svg width="102" height="100" viewBox="0 0 102 100" fill="none" xmlns="http://www.w3.org/2000/svg">
<path d="M80 76.7103V100H64V76.7103C64.0078 74.0784 63.3898 71.4713 62.1815 69.0389C60.9733 66.6064 59.1988 64.3967 56.96 62.5369C55.0425 61.0078 52.8577 59.729 50.48 58.744C49.7959 58.9084 49.1015 59.0417 48.4 59.1432C47.716 59.3079 47.0216 59.4412 46.32 59.5425C44.3197 59.8876 42.2829 60.066 40.24 60.0748H40C37.9308 60.0634 35.8678 59.8852 33.84 59.5425H31.92L29.76 59.0767C25.7215 60.6604 22.2941 63.1497 19.8633 66.2649C17.4325 69.38 16.0946 72.9974 16 76.7103V100H0V76.7103C0.0236758 71.8396 1.33276 67.0327 3.83479 62.629C6.33683 58.2253 9.97079 54.3322 14.48 51.2247C9.43627 47.027 6.00211 41.6796 4.61169 35.8586C3.22128 30.0377 3.93704 24.0045 6.66848 18.5218C9.39992 13.0392 14.0244 8.35323 19.9573 5.05643C25.8901 1.75963 32.865 0 40 0C47.135 0 54.1099 1.75963 60.0427 5.05643C65.9756 8.35323 70.6001 13.0392 73.3315 18.5218C76.063 24.0045 76.7787 30.0377 75.3883 35.8586C73.9979 41.6796 70.5637 47.027 65.52 51.2247C66.48 51.8236 67.36 52.489 68.24 53.1544C75.7295 59.4157 79.9542 67.878 80 76.7103Z" fill="#FF6B81"/>
<path d="M90 46.8889V52.4444M90 58C84.4772 58 80 53.5229 80 48C80 42.4772 84.4772 38 90 38C95.5229 38 100 42.4772 100 48C100 53.5229 95.5229 58 90 58ZM90.0553 43.5556V43.6667L89.9447 43.6669V43.5556H90.0553Z" stroke="#FF6B81" stroke-width="3" stroke-linecap="round" stroke-linejoin="round"/>
</svg>
